<svg xmlns="http://www.w3.org/2000/svg" viewBox="0 0 120 120" width="120" height="120">
  <rect x="50" y="20" width="20" height="60" rx="3" fill="#8B4513"/>
  <rect x="45" y="80" width="30" height="8" rx="2" fill="#A0522D"/>
  <rect x="42" y="88" width="36" height="12" rx="2" fill="#D2B48C"/>
  <line x1="44" y1="88" x2="44" y2="100" stroke="#8B7355" stroke-width="1.5"/>
  <line x1="48" y1="88" x2="48" y2="100" stroke="#8B7355" stroke-width="1.5"/>
  <line x1="52" y1="88" x2="52" y2="100" stroke="#8B7355" stroke-width="1.5"/>
  <line x1="56" y1="88" x2="56" y2="100" stroke="#8B7355" stroke-width="1.5"/>
  <line x1="60" y1="88" x2="60" y2="100" stroke="#8B7355" stroke-width="1.5"/>
  <line x1="64" y1="88" x2="64" y2="100" stroke="#8B7355" stroke-width="1.5"/>
  <line x1="68" y1="88" x2="68" y2="100" stroke="#8B7355" stroke-width="1.5"/>
  <line x1="72" y1="88" x2="72" y2="100" stroke="#8B7355" stroke-width="1.5"/>
  <line x1="46" y1="88" x2="46" y2="100" stroke="#8B7355" stroke-width="1.5"/>
  <line x1="50" y1="88" x2="50" y2="100" stroke="#8B7355" stroke-width="1.5"/>
  <line x1="54" y1="88" x2="54" y2="100" stroke="#8B7355" stroke-width="1.5"/>
  <line x1="58" y1="88" x2="58" y2="100" stroke="#8B7355" stroke-width="1.5"/>
  <line x1="62" y1="88" x2="62" y2="100" stroke="#8B7355" stroke-width="1.5"/>
  <line x1="66" y1="88" x2="66" y2="100" stroke="#8B7355" stroke-width="1.5"/>
  <line x1="70" y1="88" x2="70" y2="100" stroke="#8B7355" stroke-width="1.5"/>
</svg>